<?xml version="1.0" encoding="UTF-8" standalone="no"?>
<svg
   height="210mm"
   version="1.2"
   viewBox="0 0 2970 2100"
   width="297mm"
   id="svg126"
   sodipodi:docname="Microphone bracket V3_Page__.svg"
   inkscape:version="1.4.2 (ebf0e940, 2025-05-08)"
   xmlns:inkscape="http://www.inkscape.org/namespaces/inkscape"
   xmlns:sodipodi="http://sodipodi.sourceforge.net/DTD/sodipodi-0.dtd"
   xmlns="http://www.w3.org/2000/svg"
   xmlns:svg="http://www.w3.org/2000/svg"
   xmlns:rdf="http://www.w3.org/1999/02/22-rdf-syntax-ns#"
   xmlns:cc="http://creativecommons.org/ns#"
   xmlns:dc="http://purl.org/dc/elements/1.1/">
  <sodipodi:namedview
     id="namedview126"
     pagecolor="#ffffff"
     bordercolor="#000000"
     borderopacity="0.25"
     inkscape:showpageshadow="2"
     inkscape:pageopacity="0.0"
     inkscape:pagecheckerboard="0"
     inkscape:deskcolor="#d1d1d1"
     inkscape:document-units="mm"
     showgrid="false"
     inkscape:zoom="0.75910218"
     inkscape:cx="-145.5667"
     inkscape:cy="530.23165"
     inkscape:window-width="5056"
     inkscape:window-height="1382"
     inkscape:window-x="72"
     inkscape:window-y="30"
     inkscape:window-maximized="1"
     inkscape:current-layer="DrawingContent" />
  <title
     id="title1">FreeCAD SVG Export</title>
  <desc
     id="desc1">Drawing page: Page exported from FreeCAD document: Microphone_bracket_V3</desc>
  <defs
     id="defs1" />
  <g
     id="Page"
     inkscape:groupmode="layer"
     inkscape:label="TechDraw">
    <g
       id="Default_Template_A4_Landscape.svg"
       style="stroke: none;"
       transform="scale(10.000000, 10.000000)">
      <metadata
         id="metadata8">
        <rdf:RDF>
          <cc:Work
             rdf:about="">
            <dc:format>image/svg+xml</dc:format>
            <dc:type
               rdf:resource="http://purl.org/dc/dcmitype/StillImage" />
            <dc:title>FreeCAD SVG Export</dc:title>
          </cc:Work>
        </rdf:RDF>
      </metadata>
    </g>
    <g
       fill="none"
       fill-rule="evenodd"
       id="DrawingContent"
       stroke="black"
       stroke-linecap="square"
       stroke-linejoin="bevel"
       stroke-width="1">
      <g
         fill="#f1f3f5"
         fill-opacity="1"
         font-family=".AppleSystemUIFont"
         font-size="45.8611"
         font-style="normal"
         font-weight="400"
         stroke="none"
         transform="matrix(1,0,0,1,1485,1050)"
         id="g1">
        <path
           d="M410,158.787 L410,91.2132 C410,79.4975 400.503,70 388.787,70 L160,70 C126.863,70 100,43.1371 100,10 L100,-80 C100,-135.228 55.2285,-180 6.12323e-15,-180 C-55.2285,-180 -100,-135.228 -100,-80 L-100,10 C-100,43.1371 -126.863,70 -160,70 L-388.787,70 C-400.503,70 -410,79.4975 -410,91.2132 L-410,158.787 C-410,170.503 -400.503,180 -388.787,180 L-346.607,180 C-340.749,180 -336,175.251 -336,169.393 L-336,150.607 C-336,144.749 -331.251,140 -325.393,140 L-225.607,140 C-219.749,140 -215,144.749 -215,150.607 L-215,169.393 C-215,175.251 -210.251,180 -204.393,180 L204.393,180 C210.251,180 215,175.251 215,169.393 L215,150.607 C215,144.749 219.749,140 225.607,140 L325.393,140 C331.251,140 336,144.749 336,150.607 L336,169.393 C336,175.251 340.749,180 346.607,180 L388.787,180 C400.503,180 410,170.503 410,158.787 "
           fill-rule="evenodd"
           vector-effect="non-scaling-stroke"
           id="path1" />
      </g>
      <g
         fill="#f1f3f5"
         fill-opacity="1"
         font-family=".AppleSystemUIFont"
         font-size="45.8611"
         font-style="normal"
         font-weight="400"
         stroke="none"
         transform="matrix(1,0,0,1,1485,1050)"
         id="g2">
        <path
           d="M404,158.787 L404,91.2132 C404,82.8112 397.189,76 388.787,76 L160,76 C123.549,76 94,46.4508 94,10 L94,-80 C94,-131.915 51.9148,-174 5.75584e-15,-174 C-51.9148,-174 -94,-131.915 -94,-80 L-94,10 C-94,46.4508 -123.549,76 -160,76 L-388.787,76 C-397.189,76 -404,82.8112 -404,91.2132 L-404,158.787 C-404,167.189 -397.189,174 -388.787,174 L-346.607,174 C-344.062,174 -342,171.938 -342,169.393 L-342,150.607 C-342,141.435 -334.565,134 -325.393,134 L-225.607,134 C-216.435,134 -209,141.435 -209,150.607 L-209,169.393 C-209,171.938 -206.938,174 -204.393,174 L204.393,174 C206.938,174 209,171.938 209,169.393 L209,150.607 C209,141.435 216.435,134 225.607,134 L325.393,134 C334.565,134 342,141.435 342,150.607 L342,169.393 C342,171.938 344.062,174 346.607,174 L388.787,174 C397.189,174 404,167.189 404,158.787 "
           fill-rule="evenodd"
           vector-effect="non-scaling-stroke"
           id="path2" />
      </g>
      <g
         fill="#f1f3f5"
         fill-opacity="1"
         font-family=".AppleSystemUIFont"
         font-size="45.8611"
         font-style="normal"
         font-weight="400"
         stroke="none"
         transform="matrix(1,0,0,1,1485,1050)"
         id="g3">
        <path
           d="M79.1,-80 C79.1,-36.3143 43.6857,-0.900001 0,-0.900001 C-43.6857,-0.900001 -79.1,-36.3143 -79.1,-80 C-79.1,-123.686 -43.6857,-159.1 0,-159.1 C43.6857,-159.1 79.1,-123.686 79.1,-80 "
           fill-rule="evenodd"
           vector-effect="non-scaling-stroke"
           id="path3" />
      </g>
      <g
         fill="#f1f3f5"
         fill-opacity="1"
         font-family=".AppleSystemUIFont"
         font-size="45.8611"
         font-style="normal"
         font-weight="400"
         stroke="none"
         transform="matrix(1,0,0,1,1485,1050)"
         id="g4">
        <path
           d="M39.65,-80 C39.65,-58.1019 21.8981,-40.35 0,-40.35 C-21.8981,-40.35 -39.65,-58.1019 -39.65,-80 C-39.65,-101.898 -21.8981,-119.65 0,-119.65 C21.8981,-119.65 39.65,-101.898 39.65,-80 "
           fill-rule="evenodd"
           vector-effect="non-scaling-stroke"
           id="path4" />
      </g>
      <g
         fill="#f1f3f5"
         fill-opacity="1"
         font-family=".AppleSystemUIFont"
         font-size="45.8611"
         font-style="normal"
         font-weight="400"
         stroke="none"
         transform="matrix(1,0,0,1,1485,1050)"
         id="g5">
        <path
           d="M-204.393,180 L204.393,180 L204.393,174 L-204.393,174 L-204.393,180"
           fill-rule="evenodd"
           vector-effect="non-scaling-stroke"
           id="path5" />
      </g>
      <g
         fill="#f1f3f5"
         fill-opacity="1"
         font-family=".AppleSystemUIFont"
         font-size="45.8611"
         font-style="normal"
         font-weight="400"
         stroke="none"
         transform="matrix(1,0,0,1,1485,1050)"
         id="g6">
        <path
           d="M100,-80 L94,-80 C94,-131.915 51.9148,-174 5.75584e-15,-174 C-51.9148,-174 -94,-131.915 -94,-80 L-100,-80 C-100,-135.228 -55.2285,-180 6.12323e-15,-180 C55.2285,-180 100,-135.228 100,-80 "
           fill-rule="evenodd"
           vector-effect="non-scaling-stroke"
           id="path6" />
      </g>
      <g
         fill="#f1f3f5"
         fill-opacity="1"
         font-family=".AppleSystemUIFont"
         font-size="45.8611"
         font-style="normal"
         font-weight="400"
         stroke="none"
         transform="matrix(1,0,0,1,1485,1050)"
         id="g7">
        <path
           d="M388.787,70 L388.787,76 L160,76 L160,70 L388.787,70"
           fill-rule="evenodd"
           vector-effect="non-scaling-stroke"
           id="path7" />
      </g>
      <g
         fill="#f1f3f5"
         fill-opacity="1"
         font-family=".AppleSystemUIFont"
         font-size="45.8611"
         font-style="normal"
         font-weight="400"
         stroke="none"
         transform="matrix(1,0,0,1,1485,1050)"
         id="g8">
        <path
           d="M-160,70 L-160,76 L-388.787,76 L-388.787,70 L-160,70"
           fill-rule="evenodd"
           vector-effect="non-scaling-stroke"
           id="path8" />
      </g>
      <g
         fill="#f1f3f5"
         fill-opacity="1"
         font-family=".AppleSystemUIFont"
         font-size="45.8611"
         font-style="normal"
         font-weight="400"
         stroke="none"
         transform="matrix(1,0,0,1,1485,1050)"
         id="g9">
        <path
           d="M-325.393,140 L-225.607,140 L-225.607,134 L-325.393,134 L-325.393,140"
           fill-rule="evenodd"
           vector-effect="non-scaling-stroke"
           id="path9" />
      </g>
      <g
         fill="#f1f3f5"
         fill-opacity="1"
         font-family=".AppleSystemUIFont"
         font-size="45.8611"
         font-style="normal"
         font-weight="400"
         stroke="none"
         transform="matrix(1,0,0,1,1485,1050)"
         id="g10">
        <path
           d="M225.607,140 L325.393,140 L325.393,134 L225.607,134 L225.607,140"
           fill-rule="evenodd"
           vector-effect="non-scaling-stroke"
           id="path10" />
      </g>
      <g
         fill="#f1f3f5"
         fill-opacity="1"
         font-family=".AppleSystemUIFont"
         font-size="45.8611"
         font-style="normal"
         font-weight="400"
         stroke="none"
         transform="matrix(1,0,0,1,1485,1050)"
         id="g11">
        <path
           d="M-100,10 L-94,10 C-94,46.4508 -123.549,76 -160,76 L-160,70 C-126.863,70 -100,43.1371 -100,10 "
           fill-rule="evenodd"
           vector-effect="non-scaling-stroke"
           id="path11" />
      </g>
      <g
         fill="#f1f3f5"
         fill-opacity="1"
         font-family=".AppleSystemUIFont"
         font-size="45.8611"
         font-style="normal"
         font-weight="400"
         stroke="none"
         transform="matrix(1,0,0,1,1485,1050)"
         id="g12">
        <path
           d="M160,70 L160,76 C123.549,76 94,46.4508 94,10 L100,10 C100,43.1371 126.863,70 160,70 "
           fill-rule="evenodd"
           vector-effect="non-scaling-stroke"
           id="path12" />
      </g>
      <g
         fill="#f1f3f5"
         fill-opacity="1"
         font-family=".AppleSystemUIFont"
         font-size="45.8611"
         font-style="normal"
         font-weight="400"
         stroke="none"
         transform="matrix(1,0,0,1,1485,1050)"
         id="g13">
        <path
           d="M-100,-80 L-94,-80 L-94,10 L-100,10 L-100,-80"
           fill-rule="evenodd"
           vector-effect="non-scaling-stroke"
           id="path13" />
      </g>
      <g
         fill="#f1f3f5"
         fill-opacity="1"
         font-family=".AppleSystemUIFont"
         font-size="45.8611"
         font-style="normal"
         font-weight="400"
         stroke="none"
         transform="matrix(1,0,0,1,1485,1050)"
         id="g14">
        <path
           d="M100,10 L100,-80 L94,-80 L94,10 L100,10"
           fill-rule="evenodd"
           vector-effect="non-scaling-stroke"
           id="path14" />
      </g>
      <g
         fill="#f1f3f5"
         fill-opacity="1"
         font-family=".AppleSystemUIFont"
         font-size="45.8611"
         font-style="normal"
         font-weight="400"
         stroke="none"
         transform="matrix(1,0,0,1,1485,1050)"
         id="g15">
        <path
           d="M410,158.787 L410,91.2132 L404,91.2132 L404,158.787 L410,158.787"
           fill-rule="evenodd"
           vector-effect="non-scaling-stroke"
           id="path15" />
      </g>
      <g
         fill="#f1f3f5"
         fill-opacity="1"
         font-family=".AppleSystemUIFont"
         font-size="45.8611"
         font-style="normal"
         font-weight="400"
         stroke="none"
         transform="matrix(1,0,0,1,1485,1050)"
         id="g16">
        <path
           d="M-410,91.2132 L-404,91.2132 L-404,158.787 L-410,158.787 L-410,91.2132"
           fill-rule="evenodd"
           vector-effect="non-scaling-stroke"
           id="path16" />
      </g>
      <g
         fill="#f1f3f5"
         fill-opacity="1"
         font-family=".AppleSystemUIFont"
         font-size="45.8611"
         font-style="normal"
         font-weight="400"
         stroke="none"
         transform="matrix(1,0,0,1,1485,1050)"
         id="g17">
        <path
           d="M346.607,180 L388.787,180 L388.787,174 L346.607,174 L346.607,180"
           fill-rule="evenodd"
           vector-effect="non-scaling-stroke"
           id="path17" />
      </g>
      <g
         fill="#f1f3f5"
         fill-opacity="1"
         font-family=".AppleSystemUIFont"
         font-size="45.8611"
         font-style="normal"
         font-weight="400"
         stroke="none"
         transform="matrix(1,0,0,1,1485,1050)"
         id="g18">
        <path
           d="M-388.787,180 L-346.607,180 L-346.607,174 L-388.787,174 L-388.787,180"
           fill-rule="evenodd"
           vector-effect="non-scaling-stroke"
           id="path18" />
      </g>
      <g
         fill="#f1f3f5"
         fill-opacity="1"
         font-family=".AppleSystemUIFont"
         font-size="45.8611"
         font-style="normal"
         font-weight="400"
         stroke="none"
         transform="matrix(1,0,0,1,1485,1050)"
         id="g19">
        <path
           d="M388.787,180 C400.503,180 410,170.503 410,158.787 L404,158.787 C404,167.189 397.189,174 388.787,174 L388.787,180"
           fill-rule="evenodd"
           vector-effect="non-scaling-stroke"
           id="path19" />
      </g>
      <g
         fill="#f1f3f5"
         fill-opacity="1"
         font-family=".AppleSystemUIFont"
         font-size="45.8611"
         font-style="normal"
         font-weight="400"
         stroke="none"
         transform="matrix(1,0,0,1,1485,1050)"
         id="g20">
        <path
           d="M410,91.2132 L404,91.2132 C404,82.8112 397.189,76 388.787,76 L388.787,70 C400.503,70 410,79.4975 410,91.2132 "
           fill-rule="evenodd"
           vector-effect="non-scaling-stroke"
           id="path20" />
      </g>
      <g
         fill="#f1f3f5"
         fill-opacity="1"
         font-family=".AppleSystemUIFont"
         font-size="45.8611"
         font-style="normal"
         font-weight="400"
         stroke="none"
         transform="matrix(1,0,0,1,1485,1050)"
         id="g21">
        <path
           d="M-388.787,70 L-388.787,76 C-397.189,76 -404,82.8112 -404,91.2132 L-410,91.2132 C-410,79.4975 -400.503,70 -388.787,70 "
           fill-rule="evenodd"
           vector-effect="non-scaling-stroke"
           id="path21" />
      </g>
      <g
         fill="#f1f3f5"
         fill-opacity="1"
         font-family=".AppleSystemUIFont"
         font-size="45.8611"
         font-style="normal"
         font-weight="400"
         stroke="none"
         transform="matrix(1,0,0,1,1485,1050)"
         id="g22">
        <path
           d="M-410,158.787 C-410,170.503 -400.503,180 -388.787,180 L-388.787,174 C-397.189,174 -404,167.189 -404,158.787 L-410,158.787"
           fill-rule="evenodd"
           vector-effect="non-scaling-stroke"
           id="path22" />
      </g>
      <g
         fill="#f1f3f5"
         fill-opacity="1"
         font-family=".AppleSystemUIFont"
         font-size="45.8611"
         font-style="normal"
         font-weight="400"
         stroke="none"
         transform="matrix(1,0,0,1,1485,1050)"
         id="g23">
        <path
           d="M-336,150.607 C-336,144.749 -331.251,140 -325.393,140 L-325.393,134 C-334.565,134 -342,141.435 -342,150.607 L-336,150.607"
           fill-rule="evenodd"
           vector-effect="non-scaling-stroke"
           id="path23" />
      </g>
      <g
         fill="#f1f3f5"
         fill-opacity="1"
         font-family=".AppleSystemUIFont"
         font-size="45.8611"
         font-style="normal"
         font-weight="400"
         stroke="none"
         transform="matrix(1,0,0,1,1485,1050)"
         id="g24">
        <path
           d="M215,150.607 C215,144.749 219.749,140 225.607,140 L225.607,134 C216.435,134 209,141.435 209,150.607 L215,150.607"
           fill-rule="evenodd"
           vector-effect="non-scaling-stroke"
           id="path24" />
      </g>
      <g
         fill="#f1f3f5"
         fill-opacity="1"
         font-family=".AppleSystemUIFont"
         font-size="45.8611"
         font-style="normal"
         font-weight="400"
         stroke="none"
         transform="matrix(1,0,0,1,1485,1050)"
         id="g25">
        <path
           d="M-225.607,140 C-219.749,140 -215,144.749 -215,150.607 L-209,150.607 C-209,141.435 -216.435,134 -225.607,134 L-225.607,140"
           fill-rule="evenodd"
           vector-effect="non-scaling-stroke"
           id="path25" />
      </g>
      <g
         fill="#f1f3f5"
         fill-opacity="1"
         font-family=".AppleSystemUIFont"
         font-size="45.8611"
         font-style="normal"
         font-weight="400"
         stroke="none"
         transform="matrix(1,0,0,1,1485,1050)"
         id="g26">
        <path
           d="M325.393,140 C331.251,140 336,144.749 336,150.607 L342,150.607 C342,141.435 334.565,134 325.393,134 L325.393,140"
           fill-rule="evenodd"
           vector-effect="non-scaling-stroke"
           id="path26" />
      </g>
      <g
         fill="#f1f3f5"
         fill-opacity="1"
         font-family=".AppleSystemUIFont"
         font-size="45.8611"
         font-style="normal"
         font-weight="400"
         stroke="none"
         transform="matrix(1,0,0,1,1485,1050)"
         id="g27">
        <path
           d="M336,150.607 L342,150.607 L342,169.393 L336,169.393 L336,150.607"
           fill-rule="evenodd"
           vector-effect="non-scaling-stroke"
           id="path27" />
      </g>
      <g
         fill="#f1f3f5"
         fill-opacity="1"
         font-family=".AppleSystemUIFont"
         font-size="45.8611"
         font-style="normal"
         font-weight="400"
         stroke="none"
         transform="matrix(1,0,0,1,1485,1050)"
         id="g28">
        <path
           d="M-336,169.393 L-336,150.607 L-342,150.607 L-342,169.393 L-336,169.393"
           fill-rule="evenodd"
           vector-effect="non-scaling-stroke"
           id="path28" />
      </g>
      <g
         fill="#f1f3f5"
         fill-opacity="1"
         font-family=".AppleSystemUIFont"
         font-size="45.8611"
         font-style="normal"
         font-weight="400"
         stroke="none"
         transform="matrix(1,0,0,1,1485,1050)"
         id="g29">
        <path
           d="M215,169.393 L215,150.607 L209,150.607 L209,169.393 L215,169.393"
           fill-rule="evenodd"
           vector-effect="non-scaling-stroke"
           id="path29" />
      </g>
      <g
         fill="#f1f3f5"
         fill-opacity="1"
         font-family=".AppleSystemUIFont"
         font-size="45.8611"
         font-style="normal"
         font-weight="400"
         stroke="none"
         transform="matrix(1,0,0,1,1485,1050)"
         id="g30">
        <path
           d="M-215,150.607 L-209,150.607 L-209,169.393 L-215,169.393 L-215,150.607"
           fill-rule="evenodd"
           vector-effect="non-scaling-stroke"
           id="path30" />
      </g>
      <g
         fill="#f1f3f5"
         fill-opacity="1"
         font-family=".AppleSystemUIFont"
         font-size="45.8611"
         font-style="normal"
         font-weight="400"
         stroke="none"
         transform="matrix(1,0,0,1,1485,1050)"
         id="g31">
        <path
           d="M336,169.393 C336,175.251 340.749,180 346.607,180 L346.607,174 C344.062,174 342,171.938 342,169.393 L336,169.393"
           fill-rule="evenodd"
           vector-effect="non-scaling-stroke"
           id="path31" />
      </g>
      <g
         fill="#f1f3f5"
         fill-opacity="1"
         font-family=".AppleSystemUIFont"
         font-size="45.8611"
         font-style="normal"
         font-weight="400"
         stroke="none"
         transform="matrix(1,0,0,1,1485,1050)"
         id="g32">
        <path
           d="M-346.607,180 C-340.749,180 -336,175.251 -336,169.393 L-342,169.393 C-342,171.938 -344.062,174 -346.607,174 L-346.607,180"
           fill-rule="evenodd"
           vector-effect="non-scaling-stroke"
           id="path32" />
      </g>
      <g
         fill="#f1f3f5"
         fill-opacity="1"
         font-family=".AppleSystemUIFont"
         font-size="45.8611"
         font-style="normal"
         font-weight="400"
         stroke="none"
         transform="matrix(1,0,0,1,1485,1050)"
         id="g33">
        <path
           d="M204.393,180 C210.251,180 215,175.251 215,169.393 L209,169.393 C209,171.938 206.938,174 204.393,174 L204.393,180"
           fill-rule="evenodd"
           vector-effect="non-scaling-stroke"
           id="path33" />
      </g>
      <g
         fill="#f1f3f5"
         fill-opacity="1"
         font-family=".AppleSystemUIFont"
         font-size="45.8611"
         font-style="normal"
         font-weight="400"
         stroke="none"
         transform="matrix(1,0,0,1,1485,1050)"
         id="g34">
        <path
           d="M-215,169.393 C-215,175.251 -210.251,180 -204.393,180 L-204.393,174 C-206.938,174 -209,171.938 -209,169.393 L-215,169.393"
           fill-rule="evenodd"
           vector-effect="non-scaling-stroke"
           id="path34" />
      </g>
      <g
         fill="none"
         font-family=".AppleSystemUIFont"
         font-size="45.8611"
         font-style="normal"
         font-weight="400"
         stroke="#000000"
         stroke-linecap="round"
         stroke-linejoin="bevel"
         stroke-opacity="1"
         stroke-width="7"
         transform="matrix(1,0,0,1,1485,1050)"
         id="g35">
        <path
           d="M346.607,180 L388.787,180"
           fill-rule="evenodd"
           vector-effect="none"
           id="path35" />
      </g>
      <g
         fill="none"
         font-family=".AppleSystemUIFont"
         font-size="45.8611"
         font-style="normal"
         font-weight="400"
         stroke="#000000"
         stroke-linecap="round"
         stroke-linejoin="bevel"
         stroke-opacity="1"
         stroke-width="7"
         transform="matrix(1,0,0,1,1485,1050)"
         id="g36">
        <path
           d="M388.787,180 C400.503,180 410,170.503 410,158.787 "
           fill-rule="evenodd"
           vector-effect="none"
           id="path36" />
      </g>
      <g
         fill="none"
         font-family=".AppleSystemUIFont"
         font-size="45.8611"
         font-style="normal"
         font-weight="400"
         stroke="#000000"
         stroke-linecap="round"
         stroke-linejoin="bevel"
         stroke-opacity="1"
         stroke-width="7"
         transform="matrix(1,0,0,1,1485,1050)"
         id="g37">
        <path
           d="M410,158.787 L410,91.2132"
           fill-rule="evenodd"
           vector-effect="none"
           id="path37" />
      </g>
      <g
         fill="none"
         font-family=".AppleSystemUIFont"
         font-size="45.8611"
         font-style="normal"
         font-weight="400"
         stroke="#000000"
         stroke-linecap="round"
         stroke-linejoin="bevel"
         stroke-opacity="1"
         stroke-width="7"
         transform="matrix(1,0,0,1,1485,1050)"
         id="g39">
        <path
           d="M336,169.393 C336,175.251 340.749,180 346.607,180 "
           fill-rule="evenodd"
           vector-effect="none"
           id="path39" />
      </g>
      <g
         fill="none"
         font-family=".AppleSystemUIFont"
         font-size="45.8611"
         font-style="normal"
         font-weight="400"
         stroke="#000000"
         stroke-linecap="round"
         stroke-linejoin="bevel"
         stroke-opacity="1"
         stroke-width="7"
         transform="matrix(1,0,0,1,1485,1050)"
         id="g40">
        <path
           d="M336,150.607 L336,169.393"
           fill-rule="evenodd"
           vector-effect="none"
           id="path40" />
      </g>
      <g
         fill="none"
         font-family=".AppleSystemUIFont"
         font-size="45.8611"
         font-style="normal"
         font-weight="400"
         stroke="#000000"
         stroke-linecap="round"
         stroke-linejoin="bevel"
         stroke-opacity="1"
         stroke-width="7"
         transform="matrix(1,0,0,1,1485,1050)"
         id="g41">
        <path
           d="M410,91.2132 C410,79.4975 400.503,70 388.787,70 "
           fill-rule="evenodd"
           vector-effect="none"
           id="path41" />
      </g>
      <g
         fill="none"
         font-family=".AppleSystemUIFont"
         font-size="45.8611"
         font-style="normal"
         font-weight="400"
         stroke="#000000"
         stroke-linecap="round"
         stroke-linejoin="bevel"
         stroke-opacity="1"
         stroke-width="7"
         transform="matrix(1,0,0,1,1485,1050)"
         id="g42">
        <path
           d="M388.787,70 L160,70"
           fill-rule="evenodd"
           vector-effect="none"
           id="path42" />
      </g>
      <g
         fill="none"
         font-family=".AppleSystemUIFont"
         font-size="45.8611"
         font-style="normal"
         font-weight="400"
         stroke="#000000"
         stroke-linecap="round"
         stroke-linejoin="bevel"
         stroke-opacity="1"
         stroke-width="7"
         transform="matrix(1,0,0,1,1485,1050)"
         id="g43">
        <path
           d="M325.393,140 C331.251,140 336,144.749 336,150.607 "
           fill-rule="evenodd"
           vector-effect="none"
           id="path43" />
      </g>
      <g
         fill="none"
         font-family=".AppleSystemUIFont"
         font-size="45.8611"
         font-style="normal"
         font-weight="400"
         stroke="#000000"
         stroke-linecap="round"
         stroke-linejoin="bevel"
         stroke-opacity="1"
         stroke-width="7"
         transform="matrix(1,0,0,1,1485,1050)"
         id="g44">
        <path
           d="M160,70 C126.863,70 100,43.1371 100,10 "
           fill-rule="evenodd"
           vector-effect="none"
           id="path44" />
      </g>
      <g
         fill="none"
         font-family=".AppleSystemUIFont"
         font-size="45.8611"
         font-style="normal"
         font-weight="400"
         stroke="#000000"
         stroke-linecap="round"
         stroke-linejoin="bevel"
         stroke-opacity="1"
         stroke-width="7"
         transform="matrix(1,0,0,1,1485,1050)"
         id="g45">
        <path
           d="M225.607,140 L325.393,140"
           fill-rule="evenodd"
           vector-effect="none"
           id="path45" />
      </g>
      <g
         fill="none"
         font-family=".AppleSystemUIFont"
         font-size="45.8611"
         font-style="normal"
         font-weight="400"
         stroke="#000000"
         stroke-linecap="round"
         stroke-linejoin="bevel"
         stroke-opacity="1"
         stroke-width="7"
         transform="matrix(1,0,0,1,1485,1050)"
         id="g46">
        <path
           d="M100,10 L100,-80"
           fill-rule="evenodd"
           vector-effect="none"
           id="path46" />
      </g>
      <g
         fill="none"
         font-family=".AppleSystemUIFont"
         font-size="45.8611"
         font-style="normal"
         font-weight="400"
         stroke="#000000"
         stroke-linecap="round"
         stroke-linejoin="bevel"
         stroke-opacity="1"
         stroke-width="7"
         transform="matrix(1,0,0,1,1485,1050)"
         id="g47">
        <path
           d="M215,150.607 C215,144.749 219.749,140 225.607,140 "
           fill-rule="evenodd"
           vector-effect="none"
           id="path47" />
      </g>
      <g
         fill="none"
         font-family=".AppleSystemUIFont"
         font-size="45.8611"
         font-style="normal"
         font-weight="400"
         stroke="#000000"
         stroke-linecap="round"
         stroke-linejoin="bevel"
         stroke-opacity="1"
         stroke-width="7"
         transform="matrix(1,0,0,1,1485,1050)"
         id="g48">
        <path
           d="M100,-80 C100,-135.228 55.2285,-180 6.12323e-15,-180 C-55.2285,-180 -100,-135.228 -100,-80 "
           fill-rule="evenodd"
           vector-effect="none"
           id="path48" />
      </g>
      <g
         fill="none"
         font-family=".AppleSystemUIFont"
         font-size="45.8611"
         font-style="normal"
         font-weight="400"
         stroke="#000000"
         stroke-linecap="round"
         stroke-linejoin="bevel"
         stroke-opacity="1"
         stroke-width="7"
         transform="matrix(1,0,0,1,1485,1050)"
         id="g49">
        <path
           d="M215,169.393 L215,150.607"
           fill-rule="evenodd"
           vector-effect="none"
           id="path49" />
      </g>
      <g
         fill="none"
         font-family=".AppleSystemUIFont"
         font-size="45.8611"
         font-style="normal"
         font-weight="400"
         stroke="#000000"
         stroke-linecap="round"
         stroke-linejoin="bevel"
         stroke-opacity="1"
         stroke-width="7"
         transform="matrix(1,0,0,1,1485,1050)"
         id="g50">
        <path
           d="M-100,-80 L-100,10"
           fill-rule="evenodd"
           vector-effect="none"
           id="path50" />
      </g>
      <g
         fill="none"
         font-family=".AppleSystemUIFont"
         font-size="45.8611"
         font-style="normal"
         font-weight="400"
         stroke="#000000"
         stroke-linecap="round"
         stroke-linejoin="bevel"
         stroke-opacity="1"
         stroke-width="7"
         transform="matrix(1,0,0,1,1485,1050)"
         id="g51">
        <path
           d="M204.393,180 C210.251,180 215,175.251 215,169.393 "
           fill-rule="evenodd"
           vector-effect="none"
           id="path51" />
      </g>
      <g
         fill="none"
         font-family=".AppleSystemUIFont"
         font-size="45.8611"
         font-style="normal"
         font-weight="400"
         stroke="#000000"
         stroke-linecap="round"
         stroke-linejoin="bevel"
         stroke-opacity="1"
         stroke-width="7"
         transform="matrix(1,0,0,1,1485,1050)"
         id="g52">
        <path
           d="M-100,10 C-100,43.1371 -126.863,70 -160,70 "
           fill-rule="evenodd"
           vector-effect="none"
           id="path52" />
      </g>
      <g
         fill="none"
         font-family=".AppleSystemUIFont"
         font-size="45.8611"
         font-style="normal"
         font-weight="400"
         stroke="#000000"
         stroke-linecap="round"
         stroke-linejoin="bevel"
         stroke-opacity="1"
         stroke-width="7"
         transform="matrix(1,0,0,1,1485,1050)"
         id="g53">
        <path
           d="M-204.393,180 L204.393,180"
           fill-rule="evenodd"
           vector-effect="none"
           id="path53" />
      </g>
      <g
         fill="none"
         font-family=".AppleSystemUIFont"
         font-size="45.8611"
         font-style="normal"
         font-weight="400"
         stroke="#000000"
         stroke-linecap="round"
         stroke-linejoin="bevel"
         stroke-opacity="1"
         stroke-width="7"
         transform="matrix(1,0,0,1,1485,1050)"
         id="g54">
        <path
           d="M-160,70 L-388.787,70"
           fill-rule="evenodd"
           vector-effect="none"
           id="path54" />
      </g>
      <g
         fill="none"
         font-family=".AppleSystemUIFont"
         font-size="45.8611"
         font-style="normal"
         font-weight="400"
         stroke="#000000"
         stroke-linecap="round"
         stroke-linejoin="bevel"
         stroke-opacity="1"
         stroke-width="7"
         transform="matrix(1,0,0,1,1485,1050)"
         id="g55">
        <path
           d="M-215,169.393 C-215,175.251 -210.251,180 -204.393,180 "
           fill-rule="evenodd"
           vector-effect="none"
           id="path55" />
      </g>
      <g
         fill="none"
         font-family=".AppleSystemUIFont"
         font-size="45.8611"
         font-style="normal"
         font-weight="400"
         stroke="#000000"
         stroke-linecap="round"
         stroke-linejoin="bevel"
         stroke-opacity="1"
         stroke-width="7"
         transform="matrix(1,0,0,1,1485,1050)"
         id="g56">
        <path
           d="M-388.787,70 C-400.503,70 -410,79.4975 -410,91.2132 "
           fill-rule="evenodd"
           vector-effect="none"
           id="path56" />
      </g>
      <g
         fill="none"
         font-family=".AppleSystemUIFont"
         font-size="45.8611"
         font-style="normal"
         font-weight="400"
         stroke="#000000"
         stroke-linecap="round"
         stroke-linejoin="bevel"
         stroke-opacity="1"
         stroke-width="7"
         transform="matrix(1,0,0,1,1485,1050)"
         id="g57">
        <path
           d="M-215,150.607 L-215,169.393"
           fill-rule="evenodd"
           vector-effect="none"
           id="path57" />
      </g>
      <g
         fill="none"
         font-family=".AppleSystemUIFont"
         font-size="45.8611"
         font-style="normal"
         font-weight="400"
         stroke="#000000"
         stroke-linecap="round"
         stroke-linejoin="bevel"
         stroke-opacity="1"
         stroke-width="7"
         transform="matrix(1,0,0,1,1485,1050)"
         id="g58">
        <path
           d="M-410,91.2132 L-410,158.787"
           fill-rule="evenodd"
           vector-effect="none"
           id="path58" />
      </g>
      <g
         fill="none"
         font-family=".AppleSystemUIFont"
         font-size="45.8611"
         font-style="normal"
         font-weight="400"
         stroke="#000000"
         stroke-linecap="round"
         stroke-linejoin="bevel"
         stroke-opacity="1"
         stroke-width="7"
         transform="matrix(1,0,0,1,1485,1050)"
         id="g59">
        <path
           d="M-225.607,140 C-219.749,140 -215,144.749 -215,150.607 "
           fill-rule="evenodd"
           vector-effect="none"
           id="path59" />
      </g>
      <g
         fill="none"
         font-family=".AppleSystemUIFont"
         font-size="45.8611"
         font-style="normal"
         font-weight="400"
         stroke="#000000"
         stroke-linecap="round"
         stroke-linejoin="bevel"
         stroke-opacity="1"
         stroke-width="7"
         transform="matrix(1,0,0,1,1485,1050)"
         id="g60">
        <path
           d="M-410,158.787 C-410,170.503 -400.503,180 -388.787,180 "
           fill-rule="evenodd"
           vector-effect="none"
           id="path60" />
      </g>
      <g
         fill="none"
         font-family=".AppleSystemUIFont"
         font-size="45.8611"
         font-style="normal"
         font-weight="400"
         stroke="#000000"
         stroke-linecap="round"
         stroke-linejoin="bevel"
         stroke-opacity="1"
         stroke-width="7"
         transform="matrix(1,0,0,1,1485,1050)"
         id="g61">
        <path
           d="M-325.393,140 L-225.607,140"
           fill-rule="evenodd"
           vector-effect="none"
           id="path61" />
      </g>
      <g
         fill="none"
         font-family=".AppleSystemUIFont"
         font-size="45.8611"
         font-style="normal"
         font-weight="400"
         stroke="#000000"
         stroke-linecap="round"
         stroke-linejoin="bevel"
         stroke-opacity="1"
         stroke-width="7"
         transform="matrix(1,0,0,1,1485,1050)"
         id="g62">
        <path
           d="M-388.787,180 L-346.607,180"
           fill-rule="evenodd"
           vector-effect="none"
           id="path62" />
      </g>
      <g
         fill="none"
         font-family=".AppleSystemUIFont"
         font-size="45.8611"
         font-style="normal"
         font-weight="400"
         stroke="#000000"
         stroke-linecap="round"
         stroke-linejoin="bevel"
         stroke-opacity="1"
         stroke-width="7"
         transform="matrix(1,0,0,1,1485,1050)"
         id="g63">
        <path
           d="M-336,150.607 C-336,144.749 -331.251,140 -325.393,140 "
           fill-rule="evenodd"
           vector-effect="none"
           id="path63" />
      </g>
      <g
         fill="none"
         font-family=".AppleSystemUIFont"
         font-size="45.8611"
         font-style="normal"
         font-weight="400"
         stroke="#000000"
         stroke-linecap="round"
         stroke-linejoin="bevel"
         stroke-opacity="1"
         stroke-width="7"
         transform="matrix(1,0,0,1,1485,1050)"
         id="g64">
        <path
           d="M-346.607,180 C-340.749,180 -336,175.251 -336,169.393 "
           fill-rule="evenodd"
           vector-effect="none"
           id="path64" />
      </g>
      <g
         fill="none"
         font-family=".AppleSystemUIFont"
         font-size="45.8611"
         font-style="normal"
         font-weight="400"
         stroke="#000000"
         stroke-linecap="round"
         stroke-linejoin="bevel"
         stroke-opacity="1"
         stroke-width="7"
         transform="matrix(1,0,0,1,1485,1050)"
         id="g65">
        <path
           d="M-336,169.393 L-336,150.607"
           fill-rule="evenodd"
           vector-effect="none"
           id="path65" />
      </g>
      <g
         fill="none"
         font-family=".AppleSystemUIFont"
         font-size="45.8611"
         font-style="normal"
         font-weight="400"
         stroke="#000000"
         stroke-linecap="round"
         stroke-linejoin="bevel"
         stroke-opacity="1"
         stroke-width="7"
         transform="matrix(1,0,0,1,1485,1050)"
         id="g66">
        <path
           d="M39.65,-80 C39.65,-58.1019 21.8981,-40.35 0,-40.35 C-21.8981,-40.35 -39.65,-58.1019 -39.65,-80 C-39.65,-101.898 -21.8981,-119.65 0,-119.65 C21.8981,-119.65 39.65,-101.898 39.65,-80 "
           fill-rule="evenodd"
           vector-effect="none"
           id="path66" />
      </g>
      <g
         fill="none"
         font-family=".AppleSystemUIFont"
         font-size="45.8611"
         font-style="normal"
         font-weight="400"
         stroke="#000000"
         stroke-linecap="round"
         stroke-linejoin="bevel"
         stroke-opacity="1"
         stroke-width="7"
         transform="matrix(1,0,0,1,1485,1050)"
         id="g79" />
      <g
         fill="none"
         font-family=".AppleSystemUIFont"
         font-size="45.8611"
         font-style="normal"
         font-weight="400"
         stroke="#000000"
         stroke-linecap="round"
         stroke-linejoin="bevel"
         stroke-opacity="1"
         stroke-width="7"
         transform="matrix(1,0,0,1,1485,1050)"
         id="g115" />
    </g>
  </g>
</svg>
